<?xml version="1.0" encoding="UTF-8" standalone="no"?>
<!-- Created with Inkscape (http://www.inkscape.org/) -->

<svg
   width="793.70081"
   height="1122.5197"
   viewBox="0 0 210 297"
   version="1.1"
   id="svg5"
   inkscape:version="1.1 (c68e22c387, 2021-05-23)"
   sodipodi:docname="logo.svg"
   xmlns:inkscape="http://www.inkscape.org/namespaces/inkscape"
   xmlns:sodipodi="http://sodipodi.sourceforge.net/DTD/sodipodi-0.dtd"
   xmlns="http://www.w3.org/2000/svg"
   xmlns:svg="http://www.w3.org/2000/svg">
  <sodipodi:namedview
     id="namedview7"
     pagecolor="#1a1a1a"
     bordercolor="#ff0066"
     borderopacity="1"
     inkscape:pageshadow="0"
     inkscape:pageopacity="0"
     inkscape:pagecheckerboard="true"
     inkscape:document-units="px"
     showgrid="false"
     units="px"
     inkscape:showpageshadow="false"
     inkscape:object-paths="false"
     inkscape:snap-intersection-paths="false"
     inkscape:zoom="0.47118629"
     inkscape:cx="561.3491"
     inkscape:cy="663.21963"
     inkscape:window-width="1920"
     inkscape:window-height="1017"
     inkscape:window-x="1912"
     inkscape:window-y="-8"
     inkscape:window-maximized="1"
     inkscape:current-layer="layer1" />
  <defs
     id="defs2" />
  <g
     inkscape:label="Layer 1"
     inkscape:groupmode="layer"
     id="layer1">
    <rect
       style="opacity:1;fill:#0f2437;stroke:none;stroke-width:7.21601"
       id="rect855"
       width="264.58334"
       height="264.58334"
       x="12.308824"
       y="73.455879"
       inkscape:export-filename="D:\Google Drive\Raw Material\logo\logo.png"
       inkscape:export-xdpi="96"
       inkscape:export-ydpi="96" />
    <path
       id="path8979"
       style="color:#000000;fill:#50b86b;stroke-width:26.6458;stroke-linecap:round;stroke-linejoin:round;-inkscape-stroke:none"
       d="m 144.59934,120.66665 a 18.145245,9.7840989 0 0 0 -12.82931,2.8651 l -78.369947,42.25721 a 18.145245,9.7840989 0 0 0 0,13.83558 l 78.369947,42.25834 a 18.145245,9.7840989 0 0 0 25.6586,0 l 78.36996,-42.25834 a 18.145245,9.7840989 0 0 0 0,-13.83558 l -78.36996,-42.25721 a 18.145245,9.7840989 0 0 0 -12.82929,-2.8651 z m -88.832117,74.67066 a 7.3434863,7.3434863 0 0 0 -6.799624,3.8473 7.3434863,7.3434863 0 0 0 2.978703,9.95275 l 89.167168,48.08034 a 7.3442209,7.3442209 0 0 0 6.97404,0 l 89.16718,-48.08034 a 7.3434863,7.3434863 0 0 0 2.9787,-9.95275 7.3434863,7.3434863 0 0 0 -9.94815,-2.97526 l -85.68475,46.19858 -85.684748,-46.19858 a 7.3434863,7.3434863 0 0 0 -3.148519,-0.87204 z m 0,32.72903 a 7.3434863,7.3434863 0 0 0 -6.799624,3.84731 7.3434863,7.3434863 0 0 0 2.978703,9.9527 l 89.167168,48.0815 a 7.3442209,7.3442209 0 0 0 6.97404,0 l 89.16718,-48.0815 a 7.3434863,7.3434863 0 0 0 2.9787,-9.9527 7.3434863,7.3434863 0 0 0 -9.94815,-2.97527 l -85.68475,46.19859 -85.684748,-46.19859 a 7.3434863,7.3434863 0 0 0 -3.148519,-0.87204 z" />
  </g>
</svg>
